<svg width="218" height="239" viewBox="0 0 218 239" fill="none" xmlns="http://www.w3.org/2000/svg">
<path fill-rule="evenodd" clip-rule="evenodd" d="M29.7329 37.5586C25.0508 38.5167 20.9284 40.9662 17.3084 44.7579C12.0832 53.2731 6.85802 61.7884 1.63283 70.3037C-0.286796 74.1834 -0.696497 78.2146 1.40038 82.4961C20.2886 113.654 39.1771 144.812 58.0653 175.97C61.0844 181.544 65.3557 184.926 70.8382 186.188C86.6688 188.278 102.499 190.368 118.33 192.458C123.076 193.327 126.691 192.183 129.013 188.743C157.965 145.199 186.916 101.655 215.868 58.1113C218.157 55.2332 218.091 51.3456 217.145 47.0804C209.714 33.185 202.282 19.2895 194.851 5.39444C192.363 1.8364 189.063 0.350651 184.981 0.8658C133.232 13.0967 81.4821 25.3277 29.7329 37.5586Z" fill="#727271"/>
<path fill-rule="evenodd" clip-rule="evenodd" d="M89.7715 55.9395C88.3591 53.8627 86.947 53.3018 85.5346 54.7036C78.8857 64.1774 72.2367 73.6504 65.5878 83.1241C64.1474 85.3567 63.9172 87.799 65.4109 90.5381C82.9456 119.782 100.48 149.026 118.015 178.27C119.884 180.842 121.706 180.625 123.487 178.093C150.495 137.434 177.503 96.7754 204.511 56.116C206.318 53.3899 206.489 50.5004 205.217 47.4662C199.628 36.9928 194.038 26.519 188.448 16.0455C186.859 13.4252 185.27 13.4709 183.682 15.3395L123.487 107.484C112.249 90.3026 101.01 73.1213 89.7715 55.9395Z" fill="#FEFEFE"/>
<path fill-rule="evenodd" clip-rule="evenodd" d="M113.591 212.92C159.038 212.92 195.881 218.735 195.881 225.908C195.881 233.082 159.038 238.897 113.591 238.897C68.1449 238.897 31.3029 233.082 31.3029 225.908C31.3029 218.735 68.1449 212.92 113.591 212.92Z" fill="#727271"/>
</svg>
