<svg width="594" height="210" viewBox="0 0 594 210" fill="none" xmlns="http://www.w3.org/2000/svg">
<path d="M243.296 107.979H254.775V168.672H243.296V107.979ZM215.909 157.62H260.249V168.672H215.909V157.62ZM251.458 157.62H262.936V182.541H251.458V157.62ZM210.592 107.765H222.056V168.672H210.592V107.765Z" fill="#2B2A29"/>
<path d="M298.458 168.629V139.849L299.458 140.949L281.905 168.629H271.985V125.194H282.963V154.675L281.948 153.588L299.587 125.194H309.421V168.629H298.458Z" fill="#2B2A29"/>
<path d="M359.836 168.672C356.405 168.672 353.747 167.385 351.86 164.812C349.973 162.253 349.03 158.621 349.03 153.931V141.407C349.03 136.231 349.973 132.242 351.86 129.426C353.747 126.609 356.405 125.194 359.836 125.194C363.753 125.194 366.769 126.452 368.898 128.982C371.043 131.513 372.115 135.087 372.115 139.734V154.06C372.115 158.692 371.043 162.281 368.898 164.84C366.769 167.4 363.753 168.672 359.836 168.672ZM332.077 168.672C328.189 168.672 325.187 167.4 323.072 164.84C320.942 162.281 319.884 158.692 319.884 154.06V139.734C319.884 135.087 320.942 131.513 323.072 128.982C325.187 126.452 328.189 125.194 332.077 125.194C335.536 125.194 338.209 126.609 340.11 129.426C342.011 132.242 342.969 136.231 342.969 141.407V153.931C342.969 158.621 342.011 162.253 340.11 164.812C338.209 167.385 335.536 168.672 332.077 168.672ZM335.465 157.62C337.009 157.62 338.195 157.048 339.024 155.919C339.867 154.789 340.282 153.188 340.282 151.115V142.665C340.282 140.592 339.867 139.005 339.024 137.904C338.195 136.803 337.009 136.246 335.465 136.246C334.15 136.246 333.149 136.803 332.434 137.932C331.72 139.048 331.362 140.62 331.362 142.665V151.115C331.362 153.188 331.72 154.789 332.434 155.919C333.149 157.048 334.15 157.62 335.465 157.62ZM340.239 112.583H351.717V181.282H340.239V112.583ZM356.448 157.62C357.764 157.62 358.778 157.048 359.521 155.919C360.265 154.789 360.637 153.188 360.637 151.115V142.665C360.637 140.62 360.265 139.048 359.521 137.932C358.778 136.803 357.764 136.246 356.448 136.246C354.933 136.246 353.775 136.803 352.946 137.932C352.132 139.048 351.717 140.62 351.717 142.665V151.115C351.717 153.188 352.132 154.789 352.946 155.919C353.775 157.048 354.933 157.62 356.448 157.62Z" fill="#2B2A29"/>
<path d="M382.578 125.194H394.056V186.344H382.578V125.194ZM404.148 169.301C401.604 169.301 399.417 168.658 397.572 167.357C395.729 166.056 394.356 164.211 393.47 161.838L394.056 151.915C394.056 153.345 394.299 154.56 394.814 155.561C395.314 156.562 396.043 157.334 397.001 157.863C397.973 158.392 399.13 158.664 400.503 158.664C402.647 158.664 404.319 157.949 405.506 156.519C406.692 155.104 407.293 153.088 407.293 150.5V143.58C407.293 140.935 406.692 138.876 405.506 137.404C404.319 135.931 402.647 135.202 400.503 135.202C399.13 135.202 397.973 135.473 397.001 136.017C396.043 136.56 395.314 137.361 394.814 138.39C394.299 139.419 394.056 140.678 394.056 142.165L393.17 132.528C394.342 129.983 395.886 128.025 397.801 126.638C399.717 125.251 401.832 124.565 404.148 124.565C407.221 124.565 409.851 125.308 412.038 126.781C414.239 128.267 415.898 130.426 417.041 133.272C418.185 136.131 418.757 139.548 418.757 143.537V150.5C418.757 154.46 418.185 157.849 417.041 160.651C415.898 163.453 414.239 165.598 412.038 167.085C409.851 168.558 407.221 169.301 404.148 169.301Z" fill="#2B2A29"/>
<path d="M446.745 169.301C442.77 169.301 439.397 168.558 436.581 167.085C433.78 165.598 431.65 163.439 430.177 160.608C428.719 157.777 427.976 154.36 427.976 150.371V143.294C427.976 139.348 428.719 135.974 430.177 133.171C431.65 130.369 433.78 128.225 436.581 126.766C439.397 125.294 442.77 124.565 446.745 124.565C450.704 124.565 454.092 125.294 456.893 126.766C459.709 128.225 461.839 130.369 463.297 133.171C464.769 135.974 465.498 139.348 465.498 143.294V150.5C465.498 154.46 464.769 157.849 463.297 160.651C461.839 163.453 459.709 165.598 456.893 167.085C454.092 168.558 450.704 169.301 446.745 169.301ZM446.702 158.249C449.017 158.249 450.818 157.563 452.104 156.205C453.391 154.861 454.035 152.945 454.035 150.5V143.294C454.035 140.864 453.391 138.976 452.104 137.632C450.818 136.289 449.017 135.617 446.702 135.617C444.414 135.617 442.628 136.289 441.356 137.632C440.083 138.976 439.455 140.864 439.455 143.294V150.5C439.455 152.945 440.083 154.861 441.341 156.205C442.599 157.563 444.386 158.249 446.702 158.249Z" fill="#2B2A29"/>
<path d="M485.024 112.755H496.502V168.672H485.024V112.755ZM468.443 107.765H513.083V118.831H468.443V107.765Z" fill="#5B5B5B"/>
<path d="M531.294 169.301C527.106 169.301 523.518 168.543 520.545 167.014C517.572 165.498 515.313 163.282 513.741 160.351C512.183 157.434 511.396 153.931 511.396 149.828V144.924C511.396 140.62 512.154 136.946 513.641 133.901C515.127 130.856 517.314 128.539 520.173 126.952C523.032 125.365 526.491 124.565 530.537 124.565C534.338 124.565 537.583 125.508 540.299 127.41C543.001 129.311 545.059 132.071 546.474 135.688C547.889 139.305 548.59 143.666 548.59 148.77V151.629H518.858V143.88H538.112L537.998 142.865C537.683 140.363 536.897 138.419 535.625 137.046C534.353 135.674 532.666 135.002 530.537 135.002C527.778 135.002 525.633 135.816 524.104 137.461C522.589 139.119 521.831 141.45 521.831 144.467V149.985C521.831 152.945 522.66 155.247 524.318 156.862C525.976 158.478 528.307 159.293 531.294 159.293C532.823 159.293 534.353 159.021 535.854 158.478C537.369 157.935 538.727 157.148 539.956 156.148L547.461 162.81C545.202 164.869 542.658 166.47 539.842 167.6C537.012 168.729 534.167 169.301 531.294 169.301Z" fill="#5B5B5B"/>
<path d="M570.66 150.7L553.864 125.194H566.515L576.935 142.751L593.988 168.672H581.38L570.66 150.7ZM568.559 144.667L575.391 152.545L565.385 168.672H553.192L568.559 144.667ZM572.632 140.606L580.665 125.194H593.316L579.365 148.656L572.632 140.606Z" fill="#5B5B5B"/>
<path fill-rule="evenodd" clip-rule="evenodd" d="M26.2138 32.4457C22.0856 33.2907 18.451 35.4513 15.2596 38.7948C10.6525 46.3041 6.04552 53.8134 1.43851 61.3227C-0.253553 64.7441 -0.614761 68.2992 1.23382 72.0747C17.8871 99.5519 34.5401 127.029 51.1934 154.507C53.8551 159.422 57.6209 162.405 62.4547 163.518C76.4118 165.361 90.3693 167.204 104.326 169.047C108.511 169.813 111.697 168.804 113.745 165.77C139.271 127.371 164.796 88.9708 190.322 50.5706C192.34 48.0327 192.282 44.604 191.448 40.8426C184.896 28.5887 178.344 16.3348 171.792 4.08099C169.598 0.943759 166.689 -0.36653 163.09 0.0874955C117.465 10.8737 71.8393 21.6599 26.2138 32.4457Z" fill="url(#paint0_linear_1_3)"/>
<path fill-rule="evenodd" clip-rule="evenodd" d="M79.1473 48.6553C77.9023 46.824 76.6574 46.3294 75.412 47.5658C69.5496 55.9201 63.6876 64.2744 57.8256 72.6287C56.5553 74.5978 56.3526 76.7515 57.6698 79.167C73.1292 104.956 88.5889 130.746 104.049 156.535C105.697 158.804 107.303 158.612 108.873 156.379C132.685 120.523 156.497 84.6674 180.309 48.8111C181.902 46.4069 182.053 43.8586 180.931 41.1834C176.003 31.9467 171.075 22.7105 166.146 13.4738C164.746 11.1635 163.345 11.2037 161.944 12.8516L108.873 94.1112C98.9648 78.9594 89.0557 63.8076 79.1473 48.6553Z" fill="#FEFEFE"/>
<path fill-rule="evenodd" clip-rule="evenodd" d="M100.149 187.091C140.218 187.091 172.7 192.22 172.7 198.546C172.7 204.872 140.218 210 100.149 210C60.0799 210 27.5976 204.872 27.5976 198.546C27.5976 192.22 60.0799 187.091 100.149 187.091Z" fill="#B4AFA9"/>
<defs>
<linearGradient id="paint0_linear_1_3" x1="73.6891" y1="165.001" x2="166.178" y2="13.4935" gradientUnits="userSpaceOnUse">
<stop stop-color="#7800FF"/>
<stop offset="1" stop-color="#FF4F12"/>
</linearGradient>
</defs>
</svg>
